{
  "accessors": [
    {
      "bufferView": 2,
      "componentType": 5126,
      "count": 82,
      "max": [
        0.024860315024852753,
        0.1646035760641098,
        0.0052291061729192734
      ],
      "min": [
        -0.024860315024852753,
        -0.02318333275616169,
        -0.0050265276804566383
      ],
      "type": "VEC3"
    },
    {
      "bufferView": 2,
      "byteOffset": 984,
      "componentType": 5126,
      "count": 82,
      "max": [
        1,
        1,
        1
      ],
      "min": [
        -1,
        -1,
        -1
      ],
      "type": "VEC3"
    },
    {
      "bufferView": 1,
      "componentType": 5126,
      "count": 82,
      "max": [
        0.97200238704681396,
        0.98303234577178955
      ],
      "min": [
        0.23690533638000488,
        0.29505521059036255
      ],
      "type": "VEC2"
    },
    {
      "bufferView": 0,
      "componentType": 5125,
      "count": 126,
      "max": [
        81
      ],
      "min": [
        0
      ],
      "type": "SCALAR"
    },
    {
      "bufferView": 2,
      "byteOffset": 1968,
      "componentType": 5126,
      "count": 88,
      "max": [
        0.016745863482356071,
        0.045675158500671387,
        0.065796338021755219
      ],
      "min": [
        -0.016745863482356071,
        -0.03640398383140564,
        -0.079974465072154999
      ],
      "type": "VEC3"
    },
    {
      "bufferView": 2,
      "byteOffset": 3024,
      "componentType": 5126,
      "count": 88,
      "max": [
        1,
        0.99965798854827881,
        0.99963849782943726
      ],
      "min": [
        -1,
        -0.99970245361328125,
        -0.99963837862014771
      ],
      "type": "VEC3"
    },
    {
      "bufferView": 1,
      "byteOffset": 656,
      "componentType": 5126,
      "count": 88,
      "max": [
        0.89213669300079346,
        0.97599732875823975
      ],
      "min": [
        0.0016921442002058029,
        0.29393681883811951
      ],
      "type": "VEC2"
    },
    {
      "bufferView": 0,
      "byteOffset": 504,
      "componentType": 5125,
      "count": 132,
      "max": [
        87
      ],
      "min": [
        0
      ],
      "type": "SCALAR"
    },
    {
      "bufferView": 2,
      "byteOffset": 4080,
      "componentType": 5126,
      "count": 48,
      "max": [
        0.0039629051461815834,
        0.01175495982170105,
        0.00023642928863409907
      ],
      "min": [
        -0.0039629051461815834,
        -0.0090606538578867912,
        -0.037295840680599213
      ],
      "type": "VEC3"
    },
    {
      "bufferView": 2,
      "byteOffset": 4656,
      "componentType": 5126,
      "count": 48,
      "max": [
        1,
        0.99999678134918213,
        0.44467568397521973
      ],
      "min": [
        -1,
        -0.9999968409538269,
        -0.82626789808273315
      ],
      "type": "VEC3"
    },
    {
      "bufferView": 1,
      "byteOffset": 1360,
      "componentType": 5126,
      "count": 48,
      "max": [
        0.98505115509033203,
        0.988669753074646
      ],
      "min": [
        0.05685717985033989,
        0.82134377956390381
      ],
      "type": "VEC2"
    },
    {
      "bufferView": 0,
      "byteOffset": 1032,
      "componentType": 5125,
      "count": 78,
      "max": [
        47
      ],
      "min": [
        0
      ],
      "type": "SCALAR"
    },
    {
      "bufferView": 2,
      "byteOffset": 5232,
      "componentType": 5126,
      "count": 256,
      "max": [
        0.0597996786236763,
        0.13773326575756073,
        0.053586553782224655
      ],
      "min": [
        -0.056780274957418442,
        -0.039481587707996368,
        -0.068709880113601685
      ],
      "type": "VEC3"
    },
    {
      "bufferView": 2,
      "byteOffset": 8304,
      "componentType": 5126,
      "count": 256,
      "max": [
        0.99811911582946777,
        0.96524029970169067,
        0.9981842041015625
      ],
      "min": [
        -0.99811911582946777,
        -0.93830257654190063,
        -0.99818426370620728
      ],
      "type": "VEC3"
    },
    {
      "bufferView": 1,
      "byteOffset": 1744,
      "componentType": 5126,
      "count": 256,
      "max": [
        0.99179518222808838,
        0.89669489860534668
      ],
      "min": [
        0.16506525874137878,
        0.31490641832351685
      ],
      "type": "VEC2"
    },
    {
      "bufferView": 0,
      "byteOffset": 1344,
      "componentType": 5125,
      "count": 384,
      "max": [
        255
      ],
      "min": [
        0
      ],
      "type": "SCALAR"
    },
    {
      "bufferView": 2,
      "byteOffset": 11376,
      "componentType": 5126,
      "count": 554,
      "max": [
        0.055877529084682465,
        0.52950400114059448,
        0.055454842746257782
      ],
      "min": [
        -0.055877517908811569,
        -0.47282034158706665,
        -0.21907223761081696
      ],
      "type": "VEC3"
    },
    {
      "bufferView": 2,
      "byteOffset": 18024,
      "componentType": 5126,
      "count": 554,
      "max": [
        1,
        1,
        1
      ],
      "min": [
        -1,
        -1,
        -0.97236484289169312
      ],
      "type": "VEC3"
    },
    {
      "bufferView": 1,
      "byteOffset": 3792,
      "componentType": 5126,
      "count": 554,
      "max": [
        0.99863165616989136,
        0.99374455213546753
      ],
      "min": [
        0.0021993780974298716,
        0.0046432213857769966
      ],
      "type": "VEC2"
    },
    {
      "bufferView": 0,
      "byteOffset": 2880,
      "componentType": 5125,
      "count": 816,
      "max": [
        553
      ],
      "min": [
        0
      ],
      "type": "SCALAR"
    },
    {
      "bufferView": 2,
      "byteOffset": 24672,
      "componentType": 5126,
      "count": 2043,
      "max": [
        0.043095041066408157,
        0.43453451991081238,
        0.10491707175970078
      ],
      "min": [
        -0.03700854629278183,
        -0.41844230890274048,
        -0.15402120351791382
      ],
      "type": "VEC3"
    },
    {
      "bufferView": 2,
      "byteOffset": 49188,
      "componentType": 5126,
      "count": 2043,
      "max": [
        1,
        1,
        1
      ],
      "min": [
        -1,
        -1,
        -1
      ],
      "type": "VEC3"
    },
    {
      "bufferView": 1,
      "byteOffset": 8224,
      "componentType": 5126,
      "count": 2043,
      "max": [
        0.98475641012191772,
        0.99919801950454712
      ],
      "min": [
        0.0069536180235445499,
        0.0049091856926679611
      ],
      "type": "VEC2"
    },
    {
      "bufferView": 0,
      "byteOffset": 6144,
      "componentType": 5125,
      "count": 3087,
      "max": [
        2042
      ],
      "min": [
        0
      ],
      "type": "SCALAR"
    },
    {
      "bufferView": 2,
      "byteOffset": 73704,
      "componentType": 5126,
      "count": 44,
      "max": [
        0.03058926947414875,
        -0.039867643266916275,
        0.010316903702914715
      ],
      "min": [
        0.019398869946599007,
        -0.10873588174581528,
        -0.029143543913960457
      ],
      "type": "VEC3"
    },
    {
      "bufferView": 2,
      "byteOffset": 74232,
      "componentType": 5126,
      "count": 44,
      "max": [
        1,
        1,
        1
      ],
      "min": [
        -1,
        -1,
        -1
      ],
      "type": "VEC3"
    },
    {
      "bufferView": 1,
      "byteOffset": 24568,
      "componentType": 5126,
      "count": 44,
      "max": [
        0.85278850793838501,
        0.98458576202392578
      ],
      "min": [
        0.00084795278962701559,
        0.50137430429458618
      ],
      "type": "VEC2"
    },
    {
      "bufferView": 0,
      "byteOffset": 18492,
      "componentType": 5125,
      "count": 66,
      "max": [
        43
      ],
      "min": [
        0
      ],
      "type": "SCALAR"
    },
    {
      "bufferView": 2,
      "byteOffset": 74760,
      "componentType": 5126,
      "count": 128,
      "max": [
        0.0066875722259283066,
        0.33487999439239502,
        -0.012305685319006443
      ],
      "min": [
        -0.0066875680349767208,
        -0.4207313060760498,
        -0.14136926829814911
      ],
      "type": "VEC3"
    },
    {
      "bufferView": 2,
      "byteOffset": 76296,
      "componentType": 5126,
      "count": 128,
      "max": [
        1,
        1,
        1.871340828074608e-06
      ],
      "min": [
        -1,
        -1,
        -1
      ],
      "type": "VEC3"
    },
    {
      "bufferView": 1,
      "byteOffset": 24920,
      "componentType": 5126,
      "count": 128,
      "max": [
        0.97475922107696533,
        0.99216800928115845
      ],
      "min": [
        0.23457199335098267,
        0.26252171397209167
      ],
      "type": "VEC2"
    },
    {
      "bufferView": 0,
      "byteOffset": 18756,
      "componentType": 5125,
      "count": 180,
      "max": [
        127
      ],
      "min": [
        0
      ],
      "type": "SCALAR"
    }
  ],
  "asset": {
    "extras": {
      "author": "FireWarden (https://sketchfab.com/Airsoftaaja)",
      "license": "CC-BY-4.0 (http://creativecommons.org/licenses/by/4.0/)",
      "source": "https://sketchfab.com/3d-models/cartoony-m16-d3357d8e227c462fafa0136d0d367c67",
      "title": "Cartoony M16"
    },
    "generator": "Sketchfab-7.41.0",
    "version": "2.0"
  },
  "bufferViews": [
    {
      "buffer": 0,
      "byteLength": 19476,
      "byteOffset": 0,
      "name": "floatBufferViews",
      "target": 34963
    },
    {
      "buffer": 0,
      "byteLength": 25944,
      "byteOffset": 19476,
      "byteStride": 8,
      "name": "floatBufferViews",
      "target": 34962
    },
    {
      "buffer": 0,
      "byteLength": 77832,
      "byteOffset": 45420,
      "byteStride": 12,
      "name": "floatBufferViews",
      "target": 34962
    }
  ],
  "buffers": [
    {
      "byteLength": 123252,
      "uri": "scene.bin"
    }
  ],
  "materials": [
    {
      "doubleSided": true,
      "emissiveFactor": [
        0,
        0,
        0
      ],
      "name": "metal3.001",
      "pbrMetallicRoughness": {
        "baseColorFactor": [
          0.23699000000000001,
          0.23699000000000001,
          0.23699000000000001,
          1
        ],
        "metallicFactor": 0,
        "roughnessFactor": 0.59999999999999998
      }
    },
    {
      "doubleSided": true,
      "emissiveFactor": [
        0,
        0,
        0
      ],
      "name": "yellow",
      "pbrMetallicRoughness": {
        "baseColorFactor": [
          0.79891599999999996,
          0.80000000000000004,
          0.37186000000000002,
          1
        ],
        "metallicFactor": 0,
        "roughnessFactor": 0.59999999999999998
      }
    },
    {
      "doubleSided": true,
      "emissiveFactor": [
        0,
        0,
        0
      ],
      "name": "metal2.001",
      "pbrMetallicRoughness": {
        "baseColorFactor": [
          0.78423100000000001,
          0.78423100000000001,
          0.78423100000000001,
          1
        ],
        "metallicFactor": 0,
        "roughnessFactor": 0.59999999999999998
      }
    },
    {
      "doubleSided": true,
      "emissiveFactor": [
        0,
        0,
        0
      ],
      "name": "tape_green.001",
      "pbrMetallicRoughness": {
        "baseColorFactor": [
          0.27012199999999997,
          0.58052000000000004,
          0.16907800000000001,
          1
        ],
        "metallicFactor": 0,
        "roughnessFactor": 0.59999999999999998
      }
    },
    {
      "doubleSided": true,
      "emissiveFactor": [
        0,
        0,
        0
      ],
      "name": "metal4",
      "pbrMetallicRoughness": {
        "baseColorFactor": [
          1,
          1,
          1,
          1
        ],
        "metallicFactor": 0,
        "roughnessFactor": 0.59999999999999998
      }
    },
    {
      "doubleSided": true,
      "emissiveFactor": [
        0,
        0,
        0
      ],
      "name": "metal1.001",
      "pbrMetallicRoughness": {
        "baseColorFactor": [
          0.418854,
          0.418854,
          0.418854,
          1
        ],
        "metallicFactor": 0,
        "roughnessFactor": 0.59999999999999998
      }
    }
  ],
  "meshes": [
    {
      "name": "ChargingHandle_metal3.001_0",
      "primitives": [
        {
          "attributes": {
            "NORMAL": 1,
            "POSITION": 0,
            "TEXCOORD_0": 2
          },
          "indices": 3,
          "material": 0,
          "mode": 4
        }
      ]
    },
    {
      "name": "Magazine_yellow_0",
      "primitives": [
        {
          "attributes": {
            "NORMAL": 5,
            "POSITION": 4,
            "TEXCOORD_0": 6
          },
          "indices": 7,
          "material": 1,
          "mode": 4
        }
      ]
    },
    {
      "name": "Trigger_metal2.001_0",
      "primitives": [
        {
          "attributes": {
            "NORMAL": 9,
            "POSITION": 8,
            "TEXCOORD_0": 10
          },
          "indices": 11,
          "material": 2,
          "mode": 4
        }
      ]
    },
    {
      "name": "Wrap_tape green.001_0",
      "primitives": [
        {
          "attributes": {
            "NORMAL": 13,
            "POSITION": 12,
            "TEXCOORD_0": 14
          },
          "indices": 15,
          "material": 3,
          "mode": 4
        }
      ]
    },
    {
      "name": "M16_metal3.001_0",
      "primitives": [
        {
          "attributes": {
            "NORMAL": 17,
            "POSITION": 16,
            "TEXCOORD_0": 18
          },
          "indices": 19,
          "material": 0,
          "mode": 4
        }
      ]
    },
    {
      "name": "M16_metal2.001_0",
      "primitives": [
        {
          "attributes": {
            "NORMAL": 21,
            "POSITION": 20,
            "TEXCOORD_0": 22
          },
          "indices": 23,
          "material": 2,
          "mode": 4
        }
      ]
    },
    {
      "name": "M16_metal4_0",
      "primitives": [
        {
          "attributes": {
            "NORMAL": 25,
            "POSITION": 24,
            "TEXCOORD_0": 26
          },
          "indices": 27,
          "material": 4,
          "mode": 4
        }
      ]
    },
    {
      "name": "M16_metal1.001_0",
      "primitives": [
        {
          "attributes": {
            "NORMAL": 29,
            "POSITION": 28,
            "TEXCOORD_0": 30
          },
          "indices": 31,
          "material": 5,
          "mode": 4
        }
      ]
    }
  ],
  "nodes": [
    {
      "children": [
        1
      ],
      "name": "RootNode (gltf orientation matrix)",
      "rotation": [
        -0.70710678118654746,
        -0,
        -0,
        0.70710678118654757
      ]
    },
    {
      "children": [
        2
      ],
      "name": "RootNode (model correction matrix)"
    },
    {
      "children": [
        3
      ],
      "matrix": [
        1,
        0,
        0,
        0,
        0,
        0,
        1,
        0,
        0,
        -1,
        0,
        0,
        0,
        0,
        0,
        1
      ],
      "name": "6935b624e8634656910c8e932cafda4e.fbx"
    },
    {
      "children": [
        4,
        6,
        8,
        10,
        12
      ],
      "name": "RootNode"
    },
    {
      "children": [
        5
      ],
      "matrix": [
        100,
        0,
        0,
        0,
        -0,
        -1.6292067939183141e-05,
        -99.999999999998678,
        0,
        0,
        99.999999999998678,
        -1.6292067939183141e-05,
        0,
        -0.21322344243526459,
        10.165956497192383,
        7.3154029846191406,
        1
      ],
      "name": "ChargingHandle"
    },
    {
      "mesh": 0,
      "name": "ChargingHandle_metal3.001_0"
    },
    {
      "children": [
        7
      ],
      "matrix": [
        100,
        0,
        0,
        0,
        -0,
        -1.6292067939183141e-05,
        -99.999999999998678,
        0,
        0,
        99.999999999998678,
        -1.6292067939183141e-05,
        0,
        -0.21322344243526459,
        -3.2428503036499023,
        -5.8158068656921387,
        1
      ],
      "name": "Magazine"
    },
    {
      "mesh": 1,
      "name": "Magazine_yellow_0"
    },
    {
      "children": [
        9
      ],
      "matrix": [
        100,
        0,
        0,
        0,
        -0,
        -1.6292067939183141e-05,
        -99.999999999998678,
        0,
        0,
        99.999999999998678,
        -1.6292067939183141e-05,
        0,
        -0.21322344243526459,
        -0.67630410194396973,
        2.3322031497955322,
        1
      ],
      "name": "Trigger"
    },
    {
      "mesh": 2,
      "name": "Trigger_metal2.001_0"
    },
    {
      "children": [
        11
      ],
      "matrix": [
        100,
        0,
        0,
        0,
        -0,
        -1.6292067939183141e-05,
        -99.999999999998678,
        0,
        0,
        99.999999999998678,
        -1.6292067939183141e-05,
        0,
        -0.4658781886100769,
        6.994227409362793,
        -19.189342498779297,
        1
      ],
      "name": "Wrap"
    },
    {
      "mesh": 3,
      "name": "Wrap_tape green.001_0"
    },
    {
      "children": [
        13,
        14,
        15,
        16
      ],
      "matrix": [
        100,
        0,
        0,
        0,
        -0,
        -1.6292067939183141e-05,
        -99.999999999998678,
        0,
        0,
        99.999999999998678,
        -1.6292067939183141e-05,
        0,
        -0.2132236510515213,
        6.5595602989196777,
        -13.309557914733887,
        1
      ],
      "name": "M16"
    },
    {
      "mesh": 4,
      "name": "M16_metal3.001_0"
    },
    {
      "mesh": 5,
      "name": "M16_metal2.001_0"
    },
    {
      "mesh": 6,
      "name": "M16_metal4_0"
    },
    {
      "mesh": 7,
      "name": "M16_metal1.001_0"
    }
  ],
  "scene": 0,
  "scenes": [
    {
      "name": "OSG_Scene",
      "nodes": [
        0
      ]
    }
  ]
}

