{
  "accessors": [
    {
      "bufferView": 3,
      "componentType": 5126,
      "count": 2433,
      "max": [
        136.48097229003906,
        126.24530029296875,
        261.34609985351562
      ],
      "min": [
        -136.48097229003906,
        -275.5843505859375,
        -100
      ],
      "type": "VEC3"
    },
    {
      "bufferView": 3,
      "byteOffset": 29196,
      "componentType": 5126,
      "count": 2433,
      "max": [
        1,
        1,
        1
      ],
      "min": [
        -1,
        -1,
        -1
      ],
      "type": "VEC3"
    },
    {
      "bufferView": 4,
      "componentType": 5126,
      "count": 2433,
      "max": [
        1,
        1,
        1,
        1
      ],
      "min": [
        -0.99999845027923584,
        -1,
        -1,
        1
      ],
      "type": "VEC4"
    },
    {
      "bufferView": 2,
      "componentType": 5126,
      "count": 2433,
      "max": [
        0.99967557191848755,
        0.97174805402755737
      ],
      "min": [
        0.00032449132413603365,
        0.00032449132413603365
      ],
      "type": "VEC2"
    },
    {
      "bufferView": 1,
      "componentType": 5125,
      "count": 6327,
      "max": [
        2432
      ],
      "min": [
        0
      ],
      "type": "SCALAR"
    },
    {
      "bufferView": 5,
      "componentType": 5126,
      "count": 15,
      "max": [
        1,
        0.0082562565803527832,
        0.0056421812623739243,
        0,
        1.2057711273882887e-08,
        1,
        0.0099999979138374329,
        0,
        0.0099999988451600075,
        0.0099999988451600075,
        1,
        0,
        0.71706175804138184,
        1.9708768129348755,
        1.5563837289810181,
        1
      ],
      "min": [
        -0.0099999979138374329,
        -0.0085832430049777031,
        -0.0099999997764825821,
        0,
        -4.4121693463239353e-06,
        -0.010000000707805157,
        -0.0099985990673303604,
        0,
        -0.0099999997764825821,
        -1.6871994912293076e-09,
        -1.1530026933215254e-09,
        0,
        -0.72069871425628662,
        -2.0906209945678711,
        -1.3784147500991821,
        1
      ],
      "type": "MAT4"
    },
    {
      "bufferView": 0,
      "componentType": 5123,
      "count": 2433,
      "max": [
        13,
        9,
        9,
        9
      ],
      "min": [
        1,
        1,
        1,
        2
      ],
      "type": "VEC4"
    },
    {
      "bufferView": 4,
      "byteOffset": 38928,
      "componentType": 5126,
      "count": 2433,
      "max": [
        1,
        0.45906168222427368,
        0.33058172464370728,
        0.077573694288730621
      ],
      "min": [
        0.33867433667182922,
        0,
        0,
        0
      ],
      "type": "VEC4"
    },
    {
      "bufferView": 6,
      "componentType": 5126,
      "count": 18,
      "max": [
        0.375
      ],
      "min": [
        0
      ],
      "type": "SCALAR"
    },
    {
      "bufferView": 8,
      "componentType": 5126,
      "count": 18,
      "max": [
        0.047336716204881668,
        0,
        0,
        1
      ],
      "min": [
        0,
        0,
        0,
        0.99887901544570923
      ],
      "type": "VEC4"
    },
    {
      "bufferView": 6,
      "byteOffset": 72,
      "componentType": 5126,
      "count": 18,
      "max": [
        0.375
      ],
      "min": [
        0
      ],
      "type": "SCALAR"
    },
    {
      "bufferView": 7,
      "componentType": 5126,
      "count": 18,
      "max": [
        0.52374565601348877,
        0.89295095205307007,
        0.084826722741127014
      ],
      "min": [
        0.52374565601348877,
        0.80131059885025024,
        -0.049271460622549057
      ],
      "type": "VEC3"
    },
    {
      "bufferView": 6,
      "byteOffset": 144,
      "componentType": 5126,
      "count": 18,
      "max": [
        0.375
      ],
      "min": [
        0
      ],
      "type": "SCALAR"
    },
    {
      "bufferView": 7,
      "byteOffset": 216,
      "componentType": 5126,
      "count": 18,
      "max": [
        3.4370533086303112e-09,
        0.89990681409835815,
        -0.01867850124835968
      ],
      "min": [
        3.4370533086303112e-09,
        0.86077374219894409,
        -0.084140121936798096
      ],
      "type": "VEC3"
    },
    {
      "bufferView": 6,
      "byteOffset": 216,
      "componentType": 5126,
      "count": 18,
      "max": [
        0.375
      ],
      "min": [
        0
      ],
      "type": "SCALAR"
    },
    {
      "bufferView": 7,
      "byteOffset": 432,
      "componentType": 5126,
      "count": 18,
      "max": [
        -0.37945079803466797,
        -0.078877568244934082,
        -0.00060103752184659243
      ],
      "min": [
        -0.37945079803466797,
        -0.11974416673183441,
        -0.00060103752184659243
      ],
      "type": "VEC3"
    },
    {
      "bufferView": 6,
      "byteOffset": 288,
      "componentType": 5126,
      "count": 18,
      "max": [
        0.375
      ],
      "min": [
        0
      ],
      "type": "SCALAR"
    },
    {
      "bufferView": 7,
      "byteOffset": 648,
      "componentType": 5126,
      "count": 18,
      "max": [
        0.3546484112739563,
        -0.078877568244934082,
        -0.00060103752184659243
      ],
      "min": [
        0.3546484112739563,
        -0.11974416673183441,
        -0.00060103752184659243
      ],
      "type": "VEC3"
    },
    {
      "bufferView": 6,
      "byteOffset": 360,
      "componentType": 5126,
      "count": 18,
      "max": [
        0.375
      ],
      "min": [
        0
      ],
      "type": "SCALAR"
    },
    {
      "bufferView": 7,
      "byteOffset": 864,
      "componentType": 5126,
      "count": 18,
      "max": [
        0.031895335763692856,
        3.061013842398097e-08,
        -0.22782380878925323
      ],
      "min": [
        0.031895335763692856,
        3.061013842398097e-08,
        -0.26187914609909058
      ],
      "type": "VEC3"
    }
  ],
  "animations": [
    {
      "channels": [
        {
          "sampler": 0,
          "target": {
            "node": 12,
            "path": "rotation"
          }
        },
        {
          "sampler": 1,
          "target": {
            "node": 15,
            "path": "translation"
          }
        },
        {
          "sampler": 2,
          "target": {
            "node": 18,
            "path": "translation"
          }
        },
        {
          "sampler": 3,
          "target": {
            "node": 21,
            "path": "translation"
          }
        },
        {
          "sampler": 4,
          "target": {
            "node": 23,
            "path": "translation"
          }
        },
        {
          "sampler": 5,
          "target": {
            "node": 11,
            "path": "translation"
          }
        }
      ],
      "name": "Armature|ArmatureAction",
      "samplers": [
        {
          "input": 8,
          "interpolation": "LINEAR",
          "output": 9
        },
        {
          "input": 10,
          "interpolation": "LINEAR",
          "output": 11
        },
        {
          "input": 12,
          "interpolation": "LINEAR",
          "output": 13
        },
        {
          "input": 14,
          "interpolation": "LINEAR",
          "output": 15
        },
        {
          "input": 16,
          "interpolation": "LINEAR",
          "output": 17
        },
        {
          "input": 18,
          "interpolation": "LINEAR",
          "output": 19
        }
      ]
    }
  ],
  "asset": {
    "extras": {
      "author": "stormsurgestudio (https://sketchfab.com/stormsurgestudio)",
      "license": "CC-BY-4.0 (http://creativecommons.org/licenses/by/4.0/)",
      "source": "https://sketchfab.com/3d-models/sci-fi-soldier-pixel-cc15bafe8bf6481e8ba57e920dce4557",
      "title": "Sci-fi Soldier Pixel"
    },
    "generator": "Sketchfab-6.85.0",
    "version": "2.0"
  },
  "bufferViews": [
    {
      "buffer": 0,
      "byteLength": 19464,
      "byteOffset": 0,
      "byteStride": 8,
      "name": "shortBufferViews",
      "target": 34962
    },
    {
      "buffer": 0,
      "byteLength": 25308,
      "byteOffset": 19464,
      "name": "floatBufferViews",
      "target": 34963
    },
    {
      "buffer": 0,
      "byteLength": 19464,
      "byteOffset": 44772,
      "byteStride": 8,
      "name": "floatBufferViews",
      "target": 34962
    },
    {
      "buffer": 0,
      "byteLength": 58392,
      "byteOffset": 64236,
      "byteStride": 12,
      "name": "floatBufferViews",
      "target": 34962
    },
    {
      "buffer": 0,
      "byteLength": 77856,
      "byteOffset": 122628,
      "byteStride": 16,
      "name": "floatBufferViews",
      "target": 34962
    },
    {
      "buffer": 0,
      "byteLength": 960,
      "byteOffset": 200484,
      "byteStride": 64,
      "name": "floatBufferViews"
    },
    {
      "buffer": 0,
      "byteLength": 432,
      "byteOffset": 201444,
      "name": "floatBufferViews"
    },
    {
      "buffer": 0,
      "byteLength": 1080,
      "byteOffset": 201876,
      "byteStride": 12,
      "name": "floatBufferViews"
    },
    {
      "buffer": 0,
      "byteLength": 288,
      "byteOffset": 202956,
      "byteStride": 16,
      "name": "floatBufferViews"
    }
  ],
  "buffers": [
    {
      "byteLength": 203244,
      "uri": "scene.bin"
    }
  ],
  "images": [
    {
      "uri": "textures/Material_baseColor.png"
    },
    {
      "uri": "textures/Material_emissive.png"
    }
  ],
  "materials": [
    {
      "doubleSided": true,
      "emissiveFactor": [
        1,
        1,
        1
      ],
      "emissiveTexture": {
        "index": 1,
        "texCoord": 0
      },
      "name": "Material",
      "pbrMetallicRoughness": {
        "baseColorFactor": [
          1,
          1,
          1,
          1
        ],
        "baseColorTexture": {
          "index": 0,
          "texCoord": 0
        },
        "metallicFactor": 0.14195884146341464,
        "roughnessFactor": 0.80404082057734572
      }
    }
  ],
  "meshes": [
    {
      "name": "player1_Material_0",
      "primitives": [
        {
          "attributes": {
            "JOINTS_0": 6,
            "NORMAL": 1,
            "POSITION": 0,
            "TANGENT": 2,
            "TEXCOORD_0": 3,
            "WEIGHTS_0": 7
          },
          "indices": 4,
          "material": 0,
          "mode": 4
        }
      ]
    }
  ],
  "nodes": [
    {
      "children": [
        1
      ],
      "name": "RootNode (gltf orientation matrix)",
      "rotation": [
        -0.70710678118654746,
        -0,
        -0,
        0.70710678118654757
      ]
    },
    {
      "children": [
        2
      ],
      "name": "RootNode (model correction matrix)"
    },
    {
      "children": [
        3
      ],
      "matrix": [
        1,
        0,
        0,
        0,
        0,
        0,
        1,
        0,
        0,
        -1,
        0,
        0,
        0,
        0,
        0,
        1
      ],
      "name": "e231d0dcde9147618ee9becceee57449.fbx"
    },
    {
      "children": [
        4
      ],
      "name": ""
    },
    {
      "children": [
        5,
        6
      ],
      "name": "RootNode"
    },
    {
      "name": "player1"
    },
    {
      "children": [
        7
      ],
      "name": "Armature",
      "rotation": [
        -0.7071068286895752,
        0,
        0,
        0.70710670948028564
      ],
      "scale": [
        100,
        100,
        100
      ],
      "translation": [
        -2.4276943206787109,
        -174.30528259277344,
        0.48196315765380859
      ]
    },
    {
      "children": [
        8,
        10,
        9
      ],
      "name": ""
    },
    {
      "children": [
        11
      ],
      "name": "_rootJoint"
    },
    {
      "matrix": [
        0.99999997764825821,
        0,
        0,
        0,
        0,
        0.99999997764825821,
        0,
        0,
        0,
        0,
        0.99999997764825821,
        0,
        1.4901161193847656e-08,
        -7.62939453125e-06,
        3.7252902984619141e-09,
        1
      ],
      "name": ""
    },
    {
      "mesh": 0,
      "name": "",
      "skin": 0
    },
    {
      "children": [
        12,
        14,
        17,
        21,
        23
      ],
      "name": "Bone_00",
      "rotation": [
        0.7071068286895752,
        0,
        0,
        0.70710670948028564
      ],
      "translation": [
        0.031895335763692856,
        3.061013842398097e-08,
        -0.22782380878925323
      ]
    },
    {
      "children": [
        13
      ],
      "name": "Bone.001_01",
      "translation": [
        0,
        0.9589916467666626,
        0
      ]
    },
    {
      "name": "Bone.001_end_09",
      "translation": [
        0,
        2.2527220249176025,
        0
      ]
    },
    {
      "children": [
        15
      ],
      "name": "Bone.002_02",
      "rotation": [
        0.62534362077713013,
        0.33006882667541504,
        0.62534350156784058,
        -0.33006888628005981
      ],
      "scale": [
        1.0000001192092896,
        1.0000001192092896,
        1
      ],
      "translation": [
        0,
        0.9589916467666626,
        0
      ]
    },
    {
      "children": [
        16
      ],
      "name": "Bone.005_03",
      "rotation": [
        0.20879077911376953,
        0.20879067480564117,
        -0.67557859420776367,
        0.67557859420776367
      ],
      "scale": [
        1.0000001192092896,
        1,
        1.0000001192092896
      ],
      "translation": [
        0.52374565601348877,
        0.89295095205307007,
        -0.049271460622549057
      ]
    },
    {
      "name": "Bone.005_end_010",
      "rotation": [
        1.3234889800848443e-23,
        -8.9588093106691515e-24,
        2.6469779601696886e-23,
        1
      ],
      "translation": [
        0,
        0.80923038721084595,
        0
      ]
    },
    {
      "children": [
        18
      ],
      "name": "Bone.003_04",
      "rotation": [
        0.61504226922988892,
        -0.34888830780982971,
        -0.61504215002059937,
        -0.34888836741447449
      ],
      "translation": [
        0,
        0.9589916467666626,
        0
      ]
    },
    {
      "children": [
        19
      ],
      "name": "Bone.006_05",
      "rotation": [
        0.19015282392501831,
        -0.18556459248065948,
        0.65986019372940063,
        0.70284587144851685
      ],
      "scale": [
        1.0000001192092896,
        1.0000001192092896,
        1.0000001192092896
      ],
      "translation": [
        3.4370533086303112e-09,
        0.89990681409835815,
        -0.084140121936798096
      ]
    },
    {
      "children": [
        20
      ],
      "name": "Bone.004_06",
      "rotation": [
        -0.030164813622832298,
        0.99945622682571411,
        0.013323817402124405,
        0.00011750461271731183
      ],
      "scale": [
        1.0000001192092896,
        1,
        0.99999994039535522
      ],
      "translation": [
        -0.75792509317398071,
        0.74855899810791016,
        0.18774160742759705
      ]
    },
    {
      "name": "Bone.004_end_011",
      "rotation": [
        0,
        -1.6688368858257333e-22,
        0,
        1
      ],
      "translation": [
        1.7347234759768071e-18,
        1.9249260425567627,
        0
      ]
    },
    {
      "children": [
        22
      ],
      "name": "Bone.007_07",
      "rotation": [
        0.7071068286895752,
        -3.0908619663705394e-08,
        -0.70710676908493042,
        -3.0908619663705394e-08
      ],
      "scale": [
        1,
        0.99999994039535522,
        1
      ],
      "translation": [
        -0.37945079803466797,
        -0.11974416673183441,
        -0.00060103752184659243
      ]
    },
    {
      "name": "Bone.007_end_012",
      "rotation": [
        4.3065111940286444e-24,
        6.6174449004242214e-24,
        -7.8886090522101181e-31,
        1
      ],
      "translation": [
        0,
        0.66121566295623779,
        0
      ]
    },
    {
      "children": [
        24
      ],
      "name": "Bone.008_08",
      "rotation": [
        0.7071068286895752,
        -3.0908619663705394e-08,
        -0.70710676908493042,
        -3.0908619663705394e-08
      ],
      "scale": [
        1,
        0.99999994039535522,
        1
      ],
      "translation": [
        0.3546484112739563,
        -0.11974416673183441,
        -0.00060103752184659243
      ]
    },
    {
      "name": "Bone.008_end_013",
      "rotation": [
        4.3065111940286444e-24,
        6.6174449004242214e-24,
        -7.8886090522101181e-31,
        1
      ],
      "translation": [
        0,
        0.66121566295623779,
        5.5511151231257827e-17
      ]
    }
  ],
  "samplers": [
    {
      "magFilter": 9729,
      "minFilter": 9987,
      "wrapS": 10497,
      "wrapT": 10497
    }
  ],
  "scene": 0,
  "scenes": [
    {
      "name": "OSG_Scene",
      "nodes": [
        0
      ]
    }
  ],
  "skins": [
    {
      "inverseBindMatrices": 5,
      "joints": [
        8,
        11,
        12,
        13,
        14,
        15,
        16,
        17,
        18,
        19,
        20,
        21,
        22,
        23,
        24
      ],
      "skeleton": 8
    }
  ],
  "textures": [
    {
      "sampler": 0,
      "source": 0
    },
    {
      "sampler": 0,
      "source": 1
    }
  ]
}

